<?xml version="1.0" encoding="UTF-8"?>
<!DOCTYPE svg PUBLIC "-//W3C//DTD SVG 1.1//EN" "http://www.w3.org/Graphics/SVG/1.1/DTD/svg11.dtd">
<svg xmlns="http://www.w3.org/2000/svg" version="1.1" width="1024px" height="1024px" style="shape-rendering:geometricPrecision; text-rendering:geometricPrecision; image-rendering:optimizeQuality; fill-rule:evenodd; clip-rule:evenodd" xmlns:xlink="http://www.w3.org/1999/xlink">
<g><path style="opacity:0.075" fill="#000000" d="M 311.5,86.5 C 445.167,86.3333 578.834,86.5 712.5,87C 744.295,86.8459 775.628,90.5126 806.5,98C 878.355,120.856 922.855,169.023 940,242.5C 944.142,263.633 946.475,284.967 947,306.5C 947.971,456.844 947.637,607.177 946,757.5C 944.841,804.199 930.508,846.199 903,883.5C 871.52,922.003 831.02,945.169 781.5,953C 769.892,954.845 758.225,956.179 746.5,957C 668.344,958.137 590.177,958.637 512,958.5C 433.823,958.637 355.656,958.137 277.5,957C 225.35,955.961 179.683,938.628 140.5,905C 101.129,866.29 80.2962,819.123 78,763.5C 77.0005,748.516 76.3338,733.516 76,718.5C 75.3333,587.833 75.3333,457.167 76,326.5C 75.5807,293.357 79.2474,260.691 87,228.5C 104.458,170.379 140.958,129.212 196.5,105C 216.851,97.329 237.851,92.329 259.5,90C 276.962,88.4051 294.296,87.2384 311.5,86.5 Z"/></g>
<g><path style="opacity:1" fill="#bfd7de" d="M 859.5,143.5 C 859.414,144.496 859.748,145.329 860.5,146C 859.207,146.49 857.873,146.657 856.5,146.5C 856.36,148.124 857.027,149.29 858.5,150C 855.937,150.918 853.77,150.418 852,148.5C 851.667,149.167 851.333,149.833 851,150.5C 848.385,147.93 845.718,147.93 843,150.5C 841,149.833 839.667,148.5 839,146.5C 838,149.167 837,149.167 836,146.5C 835.667,147.167 835.333,147.833 835,148.5C 833.23,146.582 831.063,146.082 828.5,147C 829.167,147.333 829.833,147.667 830.5,148C 829.207,148.49 827.873,148.657 826.5,148.5C 799.69,133.044 770.69,124.877 739.5,124C 662.677,122.865 585.844,122.365 509,122.5C 432.156,122.365 355.323,122.865 278.5,124C 249.84,125.358 223.173,133.191 198.5,147.5C 197.504,147.586 196.671,147.252 196,146.5C 195.667,147.167 195.333,147.833 195,148.5C 193.23,146.582 191.063,146.082 188.5,147C 189.167,147.333 189.833,147.667 190.5,148C 187.167,148.333 183.833,148.667 180.5,149C 180,149.5 179.5,150 179,150.5C 176.371,150.072 174.038,149.072 172,147.5C 171.374,149.991 170.541,149.991 169.5,147.5C 166.833,148.167 164.167,148.833 161.5,149.5C 160.702,149.043 160.369,148.376 160.5,147.5C 186.513,123.665 217.18,109.165 252.5,104C 267.749,101.705 283.082,100.371 298.5,100C 447.177,99.0297 595.844,99.363 744.5,101C 787.777,102.474 826.11,116.64 859.5,143.5 Z"/></g>
<g><path style="opacity:1" fill="#000000" d="M 826.5,148.5 C 855.206,167.228 875.872,192.561 888.5,224.5C 894.361,242.677 897.861,261.344 899,280.5C 900.321,308.816 900.821,337.15 900.5,365.5C 900.5,386.833 900.5,408.167 900.5,429.5C 900.5,450.167 900.5,470.833 900.5,491.5C 900.5,513.833 900.5,536.167 900.5,558.5C 900.5,582.833 900.5,607.167 900.5,631.5C 900.5,660.167 900.5,688.833 900.5,717.5C 899.808,742.896 896.308,767.896 890,792.5C 887.591,799.229 885.091,805.896 882.5,812.5C 871.565,834.441 856.232,852.775 836.5,867.5C 807.786,887.523 775.786,898.023 740.5,899C 663.343,900.133 586.177,900.633 509,900.5C 432.156,900.635 355.323,900.135 278.5,899C 228.277,896.639 187.444,876.139 156,837.5C 150.808,829.103 145.642,820.769 140.5,812.5C 135.038,799.947 130.871,786.947 128,773.5C 125.027,753.447 123.193,733.447 122.5,713.5C 122.5,673.167 122.5,632.833 122.5,592.5C 122.5,570.5 122.5,548.5 122.5,526.5C 122.5,504.5 122.5,482.5 122.5,460.5C 122.5,424.167 122.5,387.833 122.5,351.5C 121.697,319.726 123.03,288.059 126.5,256.5C 134.641,209.418 158.641,173.085 198.5,147.5C 223.173,133.191 249.84,125.358 278.5,124C 355.323,122.865 432.156,122.365 509,122.5C 585.844,122.365 662.677,122.865 739.5,124C 770.69,124.877 799.69,133.044 826.5,148.5 Z"/></g>
<g><path style="opacity:1" fill="#b8ced6" d="M 859.5,143.5 C 884.325,164.477 901.658,190.477 911.5,221.5C 911.5,223.833 911.5,226.167 911.5,228.5C 909.61,228.297 908.11,228.963 907,230.5C 905.676,229.12 904.343,228.786 903,229.5C 901.667,228.833 900.667,227.833 900,226.5C 899.667,227.167 899.333,227.833 899,228.5C 896.175,226.812 893.009,225.979 889.5,226C 893.226,224.957 892.893,224.457 888.5,224.5C 875.872,192.561 855.206,167.228 826.5,148.5C 827.873,148.657 829.207,148.49 830.5,148C 829.833,147.667 829.167,147.333 828.5,147C 831.063,146.082 833.23,146.582 835,148.5C 835.333,147.833 835.667,147.167 836,146.5C 837,149.167 838,149.167 839,146.5C 839.667,148.5 841,149.833 843,150.5C 845.718,147.93 848.385,147.93 851,150.5C 851.333,149.833 851.667,149.167 852,148.5C 853.77,150.418 855.937,150.918 858.5,150C 857.027,149.29 856.36,148.124 856.5,146.5C 857.873,146.657 859.207,146.49 860.5,146C 859.748,145.329 859.414,144.496 859.5,143.5 Z"/></g>
<g><path style="opacity:1" fill="#262626" d="M 296.5,183.5 C 439.834,183.333 583.167,183.5 726.5,184C 799.345,186.178 836.845,223.678 839,296.5C 839.667,439.833 839.667,583.167 839,726.5C 836.84,799.326 799.34,836.826 726.5,839C 583.167,839.667 439.833,839.667 296.5,839C 223.684,836.85 186.184,799.35 184,726.5C 183.333,583.167 183.333,439.833 184,296.5C 186.342,223.658 223.842,185.991 296.5,183.5 Z"/></g>
<g><path style="opacity:1" fill="#b5cad3" d="M 198.5,147.5 C 158.641,173.085 134.641,209.418 126.5,256.5C 124.473,256.662 122.473,256.495 120.5,256C 122.935,254.997 122.602,254.497 119.5,254.5C 118.006,254.709 116.839,255.376 116,256.5C 115.667,255.833 115.333,255.167 115,254.5C 113.061,258.307 111.227,258.307 109.5,254.5C 108.167,254.833 106.833,255.167 105.5,255.5C 104.702,255.043 104.369,254.376 104.5,253.5C 110.086,210.983 128.753,175.65 160.5,147.5C 160.369,148.376 160.702,149.043 161.5,149.5C 164.167,148.833 166.833,148.167 169.5,147.5C 170.541,149.991 171.374,149.991 172,147.5C 174.038,149.072 176.371,150.072 179,150.5C 179.5,150 180,149.5 180.5,149C 183.833,148.667 187.167,148.333 190.5,148C 189.833,147.667 189.167,147.333 188.5,147C 191.063,146.082 193.23,146.582 195,148.5C 195.333,147.833 195.667,147.167 196,146.5C 196.671,147.252 197.504,147.586 198.5,147.5 Z"/></g>
<g><path style="opacity:1" fill="#6460fd" d="M 318.5,247.5 C 329.519,250.932 339.352,256.598 348,264.5C 355.576,273.061 359.076,283.061 358.5,294.5C 348.5,294.5 338.5,294.5 328.5,294.5C 327.613,281.442 320.613,273.942 307.5,272C 298.669,270.581 291.169,273.081 285,279.5C 280.574,287.746 282.074,294.58 289.5,300C 306.353,305.092 323.02,310.759 339.5,317C 356.44,327.125 362.94,341.958 359,361.5C 353.021,381.636 339.521,392.969 318.5,395.5C 318.5,401.833 318.5,408.167 318.5,414.5C 309.167,414.5 299.833,414.5 290.5,414.5C 290.823,407.978 290.49,401.645 289.5,395.5C 265.604,389.935 252.27,374.935 249.5,350.5C 249.5,347.833 249.5,345.167 249.5,342.5C 259.167,342.5 268.833,342.5 278.5,342.5C 279.711,365.539 291.711,375.039 314.5,371C 325.78,367.612 330.28,360.112 328,348.5C 324.359,343.422 319.525,339.922 313.5,338C 298.334,334.389 283.667,329.389 269.5,323C 253.928,312.64 248.094,298.14 252,279.5C 258.569,261.756 271.069,251.09 289.5,247.5C 290.49,241.69 290.823,235.69 290.5,229.5C 299.5,229.5 308.5,229.5 317.5,229.5C 317.177,235.69 317.51,241.69 318.5,247.5 Z"/></g>
<g><path style="opacity:1" fill="#5754d0" d="M 318.5,247.5 C 317.51,241.69 317.177,235.69 317.5,229.5C 308.5,229.5 299.5,229.5 290.5,229.5C 290.823,235.69 290.49,241.69 289.5,247.5C 289.5,241.167 289.5,234.833 289.5,228.5C 299.167,228.5 308.833,228.5 318.5,228.5C 318.5,234.833 318.5,241.167 318.5,247.5 Z"/></g>
<g><path style="opacity:1" fill="#333151" d="M 403.5,249.5 C 394.167,249.5 384.833,249.5 375.5,249.5C 375.5,250.833 375.5,252.167 375.5,253.5C 374.549,252.081 374.216,250.415 374.5,248.5C 384.348,248.173 394.014,248.506 403.5,249.5 Z"/></g>
<g><path style="opacity:1" fill="#6460fc" d="M 403.5,249.5 C 406.419,281.964 408.419,314.631 409.5,347.5C 409.334,353.176 409.501,358.843 410,364.5C 411.252,361.986 411.752,359.32 411.5,356.5C 415.762,320.735 420.762,285.068 426.5,249.5C 435.085,249.183 443.585,249.517 452,250.5C 458.587,286.022 464.087,321.689 468.5,357.5C 468.298,359.989 468.798,362.323 470,364.5C 470.5,357.842 470.666,351.175 470.5,344.5C 471.565,312.803 473.232,281.136 475.5,249.5C 484.833,249.5 494.167,249.5 503.5,249.5C 498.836,297.805 494.503,346.138 490.5,394.5C 477.833,394.5 465.167,394.5 452.5,394.5C 447.663,362.808 443.163,331.141 439,299.5C 435.718,330.973 431.551,362.306 426.5,393.5C 413.851,394.499 401.184,394.832 388.5,394.5C 384.218,347.494 379.884,300.494 375.5,253.5C 375.5,252.167 375.5,250.833 375.5,249.5C 384.833,249.5 394.167,249.5 403.5,249.5 Z"/></g>
<g><path style="opacity:1" fill="#aec2cc" d="M 911.5,221.5 C 917.346,238.227 920.846,255.56 922,273.5C 923.38,304.147 923.88,334.814 923.5,365.5C 922.849,364.909 922.182,364.243 921.5,363.5C 920.575,364.641 919.741,364.641 919,363.5C 917.667,364.167 916.667,365.167 916,366.5C 915.667,365.833 915.333,365.167 915,364.5C 914.161,365.624 912.994,366.291 911.5,366.5C 910.167,365.833 908.833,365.167 907.5,364.5C 905.078,365.249 902.745,365.582 900.5,365.5C 900.821,337.15 900.321,308.816 899,280.5C 897.861,261.344 894.361,242.677 888.5,224.5C 892.893,224.457 893.226,224.957 889.5,226C 893.009,225.979 896.175,226.812 899,228.5C 899.333,227.833 899.667,227.167 900,226.5C 900.667,227.833 901.667,228.833 903,229.5C 904.343,228.786 905.676,229.12 907,230.5C 908.11,228.963 909.61,228.297 911.5,228.5C 911.5,226.167 911.5,223.833 911.5,221.5 Z"/></g>
<g><path style="opacity:1" fill="#acbfca" d="M 104.5,253.5 C 104.369,254.376 104.702,255.043 105.5,255.5C 106.833,255.167 108.167,254.833 109.5,254.5C 111.227,258.307 113.061,258.307 115,254.5C 115.333,255.167 115.667,255.833 116,256.5C 116.839,255.376 118.006,254.709 119.5,254.5C 122.602,254.497 122.935,254.997 120.5,256C 122.473,256.495 124.473,256.662 126.5,256.5C 123.03,288.059 121.697,319.726 122.5,351.5C 119.451,351.836 116.118,352.336 112.5,353C 111.874,353.75 111.374,354.584 111,355.5C 108.385,352.93 105.718,352.93 103,355.5C 102.586,355.043 102.086,354.709 101.5,354.5C 100.5,336.846 100.167,319.179 100.5,301.5C 100.19,285.216 101.524,269.216 104.5,253.5 Z"/></g>
<g><path style="opacity:1" fill="#3a386c" d="M 278.5,342.5 C 268.833,342.5 259.167,342.5 249.5,342.5C 249.5,345.167 249.5,347.833 249.5,350.5C 248.523,347.713 248.19,344.713 248.5,341.5C 258.681,341.173 268.681,341.506 278.5,342.5 Z"/></g>
<g><path style="opacity:1" fill="#44428e" d="M 470.5,344.5 C 470.666,351.175 470.5,357.842 470,364.5C 468.798,362.323 468.298,359.989 468.5,357.5C 469.167,353.167 469.833,348.833 470.5,344.5 Z"/></g>
<g><path style="opacity:1" fill="#484598" d="M 409.5,347.5 C 410.167,350.5 410.833,353.5 411.5,356.5C 411.752,359.32 411.252,361.986 410,364.5C 409.501,358.843 409.334,353.176 409.5,347.5 Z"/></g>
<g><path style="opacity:1" fill="#a4b5c1" d="M 923.5,365.5 C 923.5,386.833 923.5,408.167 923.5,429.5C 922.849,428.909 922.182,428.243 921.5,427.5C 920.575,428.641 919.741,428.641 919,427.5C 917.667,428.167 916.667,429.167 916,430.5C 915.667,429.833 915.333,429.167 915,428.5C 914.161,429.624 912.994,430.291 911.5,430.5C 910.167,429.833 908.833,429.167 907.5,428.5C 905.078,429.249 902.745,429.582 900.5,429.5C 900.5,408.167 900.5,386.833 900.5,365.5C 902.745,365.582 905.078,365.249 907.5,364.5C 908.833,365.167 910.167,365.833 911.5,366.5C 912.994,366.291 914.161,365.624 915,364.5C 915.333,365.167 915.667,365.833 916,366.5C 916.667,365.167 917.667,364.167 919,363.5C 919.741,364.641 920.575,364.641 921.5,363.5C 922.182,364.243 922.849,364.909 923.5,365.5 Z"/></g>
<g><path style="opacity:1" fill="#48469b" d="M 289.5,395.5 C 290.49,401.645 290.823,407.978 290.5,414.5C 299.833,414.5 309.167,414.5 318.5,414.5C 309.014,415.494 299.348,415.827 289.5,415.5C 289.5,408.833 289.5,402.167 289.5,395.5 Z"/></g>
<g><path style="opacity:1" fill="#a3b3c0" d="M 100.5,301.5 C 100.167,319.179 100.5,336.846 101.5,354.5C 102.086,354.709 102.586,355.043 103,355.5C 105.718,352.93 108.385,352.93 111,355.5C 111.374,354.584 111.874,353.75 112.5,353C 116.118,352.336 119.451,351.836 122.5,351.5C 122.5,387.833 122.5,424.167 122.5,460.5C 119.193,460.249 115.693,459.582 112,458.5C 109.262,459.729 106.595,461.062 104,462.5C 103.374,460.009 102.541,460.009 101.5,462.5C 100.828,461.051 100.161,459.718 99.5,458.5C 99.1677,405.997 99.5011,353.664 100.5,301.5 Z"/></g>
<g><path style="opacity:1" fill="#9eadbb" d="M 923.5,429.5 C 923.5,450.833 923.5,472.167 923.5,493.5C 922.849,492.909 922.182,492.243 921.5,491.5C 920.575,492.641 919.741,492.641 919,491.5C 917.667,492.167 916.667,493.167 916,494.5C 915.667,493.833 915.333,493.167 915,492.5C 913.23,494.418 911.063,494.918 908.5,494C 910.992,492.751 910.825,491.584 908,490.5C 905.547,491.112 903.047,491.446 900.5,491.5C 900.5,470.833 900.5,450.167 900.5,429.5C 902.745,429.582 905.078,429.249 907.5,428.5C 908.833,429.167 910.167,429.833 911.5,430.5C 912.994,430.291 914.161,429.624 915,428.5C 915.333,429.167 915.667,429.833 916,430.5C 916.667,429.167 917.667,428.167 919,427.5C 919.741,428.641 920.575,428.641 921.5,427.5C 922.182,428.243 922.849,428.909 923.5,429.5 Z"/></g>
<g><path style="opacity:1" fill="#9ba9b8" d="M 99.5,458.5 C 100.161,459.718 100.828,461.051 101.5,462.5C 102.541,460.009 103.374,460.009 104,462.5C 106.595,461.062 109.262,459.729 112,458.5C 115.693,459.582 119.193,460.249 122.5,460.5C 122.5,482.5 122.5,504.5 122.5,526.5C 119.473,525.861 116.14,525.694 112.5,526C 111.874,526.75 111.374,527.584 111,528.5C 110.692,527.692 110.192,527.025 109.5,526.5C 106.143,526.789 102.81,527.123 99.5,527.5C 99.5,504.5 99.5,481.5 99.5,458.5 Z"/></g>
<g><path style="opacity:1" fill="#98a5b4" d="M 923.5,493.5 C 923.5,515.833 923.5,538.167 923.5,560.5C 921.38,560.07 919.38,560.07 917.5,560.5C 916.416,559.335 915.583,558.002 915,556.5C 911.14,557.728 908.64,559.062 907.5,560.5C 906.006,560.291 904.839,559.624 904,558.5C 903.667,559.167 903.333,559.833 903,560.5C 902.583,559.244 901.75,558.577 900.5,558.5C 900.5,536.167 900.5,513.833 900.5,491.5C 903.047,491.446 905.547,491.112 908,490.5C 910.825,491.584 910.992,492.751 908.5,494C 911.063,494.918 913.23,494.418 915,492.5C 915.333,493.167 915.667,493.833 916,494.5C 916.667,493.167 917.667,492.167 919,491.5C 919.741,492.641 920.575,492.641 921.5,491.5C 922.182,492.243 922.849,492.909 923.5,493.5 Z"/></g>
<g><path style="opacity:0.999" fill="#95a1b1" d="M 122.5,526.5 C 122.5,548.5 122.5,570.5 122.5,592.5C 115.13,592.469 108.13,593.136 101.5,594.5C 100.833,589.015 100.167,583.681 99.5,578.5C 99.5,561.5 99.5,544.5 99.5,527.5C 102.81,527.123 106.143,526.789 109.5,526.5C 110.192,527.025 110.692,527.692 111,528.5C 111.374,527.584 111.874,526.75 112.5,526C 116.14,525.694 119.473,525.861 122.5,526.5 Z"/></g>
<g><path style="opacity:1" fill="#929dad" d="M 923.5,560.5 C 923.5,584.167 923.5,607.833 923.5,631.5C 916.031,630.957 908.364,630.957 900.5,631.5C 900.5,607.167 900.5,582.833 900.5,558.5C 901.75,558.577 902.583,559.244 903,560.5C 903.333,559.833 903.667,559.167 904,558.5C 904.839,559.624 906.006,560.291 907.5,560.5C 908.64,559.062 911.14,557.728 915,556.5C 915.583,558.002 916.416,559.335 917.5,560.5C 919.38,560.07 921.38,560.07 923.5,560.5 Z"/></g>
<g><path style="opacity:0.999" fill="#8b94a6" d="M 923.5,631.5 C 923.5,656.5 923.5,681.5 923.5,706.5C 922.834,709.358 922.167,712.358 921.5,715.5C 920.575,716.641 919.741,716.641 919,715.5C 916.667,716.5 914.333,717.5 912,718.5C 911.167,717.5 910.333,716.5 909.5,715.5C 908.575,716.641 907.741,716.641 907,715.5C 905.006,717.187 902.839,717.854 900.5,717.5C 900.5,688.833 900.5,660.167 900.5,631.5C 908.364,630.957 916.031,630.957 923.5,631.5 Z"/></g>
<g><path style="opacity:1" fill="#8c95a6" d="M 99.5,578.5 C 100.167,583.681 100.833,589.015 101.5,594.5C 108.13,593.136 115.13,592.469 122.5,592.5C 122.5,632.833 122.5,673.167 122.5,713.5C 122.539,715.359 121.706,716.692 120,717.5C 113.894,717.621 107.394,717.287 100.5,716.5C 100.831,694.327 100.497,672.327 99.5,650.5C 99.5,626.5 99.5,602.5 99.5,578.5 Z"/></g>
<g><path style="opacity:1" fill="#7f8699" d="M 99.5,650.5 C 100.497,672.327 100.831,694.327 100.5,716.5C 107.394,717.287 113.894,717.621 120,717.5C 121.706,716.692 122.539,715.359 122.5,713.5C 123.193,733.447 125.027,753.447 128,773.5C 130.871,786.947 135.038,799.947 140.5,812.5C 138.459,812.854 136.626,812.854 135,812.5C 133.667,813.167 132.667,814.167 132,815.5C 131.374,813.009 130.541,813.009 129.5,815.5C 128.459,813.009 127.626,813.009 127,815.5C 124.663,814.978 122.33,813.645 120,811.5C 118.701,811.966 117.201,811.966 115.5,811.5C 108.155,793.298 103.655,774.298 102,754.5C 99.8103,719.872 98.977,685.205 99.5,650.5 Z"/></g>
<g><path style="opacity:1" fill="#808699" d="M 923.5,706.5 C 924.546,737.707 921.046,768.374 913,798.5C 911.629,803.464 909.796,808.131 907.5,812.5C 905.799,812.966 904.299,812.966 903,812.5C 901.667,813.167 900.667,814.167 900,815.5C 899.374,813.009 898.541,813.009 897.5,815.5C 896.459,813.009 895.626,813.009 895,815.5C 894.692,814.692 894.192,814.025 893.5,813.5C 891.388,813.961 889.221,814.294 887,814.5C 885.378,813.901 883.878,813.234 882.5,812.5C 885.091,805.896 887.591,799.229 890,792.5C 896.308,767.896 899.808,742.896 900.5,717.5C 902.839,717.854 905.006,717.187 907,715.5C 907.741,716.641 908.575,716.641 909.5,715.5C 910.333,716.5 911.167,717.5 912,718.5C 914.333,717.5 916.667,716.5 919,715.5C 919.741,716.641 920.575,716.641 921.5,715.5C 922.167,712.358 922.834,709.358 923.5,706.5 Z"/></g>
<g><path style="opacity:1" fill="#797e93" d="M 882.5,812.5 C 883.878,813.234 885.378,813.901 887,814.5C 889.221,814.294 891.388,813.961 893.5,813.5C 894.192,814.025 894.692,814.692 895,815.5C 895.626,813.009 896.459,813.009 897.5,815.5C 898.541,813.009 899.374,813.009 900,815.5C 900.667,814.167 901.667,813.167 903,812.5C 904.299,812.966 905.799,812.966 907.5,812.5C 898.877,835.429 885.544,855.096 867.5,871.5C 862.498,871.616 857.831,871.282 853.5,870.5C 852.376,875.721 851.542,875.721 851,870.5C 850,875.833 849,875.833 848,870.5C 847.182,875.794 846.682,875.794 846.5,870.5C 844.473,870.338 842.473,870.505 840.5,871C 841.167,871.333 841.833,871.667 842.5,872C 840.236,872.236 838.069,872.736 836,873.5C 835.308,872.975 834.808,872.308 834.5,871.5C 835.853,870.476 836.52,869.143 836.5,867.5C 856.232,852.775 871.565,834.441 882.5,812.5 Z"/></g>
<g><path style="opacity:1" fill="#75788d" d="M 115.5,811.5 C 117.201,811.966 118.701,811.966 120,811.5C 122.33,813.645 124.663,814.978 127,815.5C 127.626,813.009 128.459,813.009 129.5,815.5C 130.541,813.009 131.374,813.009 132,815.5C 132.667,814.167 133.667,813.167 135,812.5C 136.626,812.854 138.459,812.854 140.5,812.5C 145.642,820.769 150.808,829.103 156,837.5C 187.444,876.139 228.277,896.639 278.5,899C 355.323,900.135 432.156,900.635 509,900.5C 586.177,900.633 663.343,900.133 740.5,899C 775.786,898.023 807.786,887.523 836.5,867.5C 836.52,869.143 835.853,870.476 834.5,871.5C 834.808,872.308 835.308,872.975 836,873.5C 838.069,872.736 840.236,872.236 842.5,872C 841.833,871.667 841.167,871.333 840.5,871C 842.473,870.505 844.473,870.338 846.5,870.5C 846.682,875.794 847.182,875.794 848,870.5C 849,875.833 850,875.833 851,870.5C 851.542,875.721 852.376,875.721 853.5,870.5C 857.831,871.282 862.498,871.616 867.5,871.5C 844.103,894.706 816.103,909.873 783.5,917C 772.263,919.317 760.929,920.984 749.5,922C 669.344,923.136 589.177,923.636 509,923.5C 430.819,923.646 352.653,923.146 274.5,922C 208.982,917.713 159.148,887.88 125,832.5C 121.273,825.716 118.106,818.716 115.5,811.5 Z"/></g>
</svg>
